<svg xmlns="http://www.w3.org/2000/svg" viewBox="0 0 534.3 544.19"><defs><style>.cls-1{fill:#fff;}</style></defs><g id="Layer_2" data-name="Layer 2"><g id="Layer_1-2" data-name="Layer 1"><path class="cls-1" d="M376.09,528.85c-8.81,2.48-16.33,4.86-24,6.69-38.38,9.19-77.29,11.68-116.06,4.45-92.83-17.31-164.39-65.32-208.2-150.41C5.08,345.35-3.67,297.68,1.39,248.09,12,144.09,66.51,70.5,159.64,25.33,206.13,2.79,255.91-4.73,307.18,2.86,403,17.05,472.76,67.4,512.89,156.24c18.14,40.17,24.18,82.84,20.27,126.87-5,56.79-25.93,107-62.16,150.91-3.07,3.73-5.51,4.48-10.08,2.5-33.53-14.48-53.31-49.2-47.29-85,1.41-8.4,5.45-16.36,8.22-24.54,7.57-22.33,13.22-44.95,12.84-68.84-1.13-70.06-43.48-129-110.27-150.16-51.78-16.38-101-8.77-146.63,21-40.33,26.32-64.45,63.72-72.86,110.65-8.59,47.9,3.94,90.9,33.61,129.39,10.6,13.74,24.63,22.71,38.73,31.8q85.86,55.38,171.87,110.53c7.42,4.77,14.95,9.35,22.41,14.07C372.74,526.11,373.8,527.08,376.09,528.85Z"/><path class="cls-1" d="M458.32,539.13c-11.45-7.66-23.06-15.08-34.31-23-41.9-29.58-83.52-59.55-125.63-88.82-7.8-5.41-9.46-10.92-8.07-19.78,3.89-24.83,6.81-49.81,10.21-74.72,2.3-16.82,4.06-33.75,7.31-50.38,4.17-21.27,23.56-38.17,45.25-41,3.14-.41,6.3-.69,9.43-1.12,3.53-.48,4.89.91,4.42,4.48-1.22,9.24-2.28,18.51-3.46,27.76-3,23.29-5.6,46.62-9,69.84-2.31,15.69-1.52,30.85,4.17,45.69,7.28,19,19.71,33.76,36.36,45.21,31.26,21.5,52.43,50.21,61.78,87.22,1.47,5.86,2.19,11.9,3.26,17.86Z"/><path class="cls-1" d="M270.22,408.51c-4.8-3.19-8.68-5.42-12.17-8.15-13.63-10.64-27.22-21.34-40.59-32.31a8.83,8.83,0,0,1-2.72-6.75c1.71-14.7,3.75-29.38,6-44a26.91,26.91,0,0,1,10-17.39c12.74-10,27.22-13.67,43.16-10.24,8.18,1.75,11.9,8.15,10.72,16.29-3.41,23.55-6.58,47.14-9.87,70.71C273.32,386.84,271.85,397,270.22,408.51Z"/></g></g></svg>