<svg width="1366" height="303" viewBox="0 0 1366 303" fill="none" xmlns="http://www.w3.org/2000/svg">
<path d="M528.41 85.1387V292.889H475.54V266.639C468.615 275.78 459.531 283.061 449.1 287.829C438.007 292.999 425.899 295.627 413.66 295.519C397.413 295.519 383.04 292.079 370.54 285.199C358.04 278.319 348.227 268.195 341.1 254.829C333.974 241.462 330.41 225.525 330.41 207.019V85.1387H382.91V199.519C382.91 216.019 387.037 228.705 395.29 237.579C403.543 246.452 414.793 250.889 429.04 250.889C443.533 250.889 454.907 246.452 463.16 237.579C471.413 228.705 475.54 216.019 475.54 199.519V85.1387H528.41Z" fill="white"/>
<path d="M605.29 282.957C589.413 274.219 576.343 261.152 567.6 245.277C558.474 229.031 553.91 210.281 553.91 189.027C553.91 167.774 558.597 149.024 567.97 132.777C577.005 116.865 590.323 103.807 606.41 95.0873C622.663 86.2207 640.79 81.784 660.79 81.7774C680.79 81.7707 698.913 86.2073 715.16 95.0873C731.247 103.807 744.565 116.865 753.6 132.777C762.974 149.031 767.66 167.781 767.66 189.027C767.66 210.274 762.847 229.024 753.22 245.277C743.942 261.192 730.445 274.233 714.22 282.957C697.847 291.837 679.537 296.277 659.29 296.277C639.283 296.271 621.283 291.831 605.29 282.957ZM686.1 243.587C694.474 238.967 701.16 232.031 706.16 222.777C711.16 213.524 713.66 202.274 713.66 189.027C713.66 169.281 708.474 154.091 698.1 143.457C687.727 132.824 675.04 127.514 660.04 127.527C645.04 127.527 632.477 132.837 622.35 143.457C612.224 154.077 607.16 169.267 607.16 189.027C607.16 208.781 612.097 223.967 621.97 234.587C631.844 245.207 644.283 250.521 659.29 250.527C668.676 250.554 677.91 248.16 686.1 243.577V243.587Z" fill="white"/>
<path d="M872.089 91.5187C882.968 85.272 895.405 82.1453 909.399 82.1387V137.269H895.528C879.028 137.269 866.592 141.142 858.218 148.889C849.845 156.635 845.655 170.135 845.649 189.389V292.889H793.148V85.1387H845.649V117.389C852.124 106.662 861.223 97.759 872.089 91.5187Z" fill="white"/>
<path d="M984.057 123.539L984.027 292.889H931.527V85.1387L984.057 123.539Z" fill="white"/>
<path d="M1342.34 105.578C1357.96 121.212 1365.77 143.025 1365.78 171.018L1365.06 250.538L1313.28 292.888V178.138C1313.28 161.892 1309.15 149.455 1300.9 140.828C1292.65 132.202 1281.4 127.888 1267.15 127.888C1252.9 127.888 1241.59 132.202 1233.21 140.828C1224.83 149.455 1220.64 161.892 1220.65 178.138V292.888H1168.15V178.138C1168.15 161.892 1164.02 149.455 1155.78 140.828C1147.53 132.202 1136.28 127.888 1122.03 127.888C1107.52 127.888 1096.08 132.202 1087.71 140.828C1079.33 149.455 1075.15 161.892 1075.15 178.138V292.888H1022.65V85.1382H1075.15V110.268C1082.05 101.397 1090.99 94.3199 1101.21 89.6382C1112.19 84.5608 1124.18 81.9986 1136.28 82.1382C1152.52 82.1382 1167.02 85.5749 1179.78 92.4482C1192.33 99.1338 1202.64 109.375 1209.4 121.888C1216.15 109.888 1225.97 100.265 1238.84 93.0182C1251.58 85.7992 1266 82.0479 1280.65 82.1382C1306.15 82.1382 1326.71 89.9516 1342.34 105.578Z" fill="white"/>
<path d="M205.6 294.008C200.79 295.388 196.68 296.708 192.49 297.728C171.49 302.838 150.25 304.228 129.06 300.208C78.3199 290.578 39.2199 263.888 15.2699 216.578C2.94039 192.323 -2.08946 165.013 0.789887 137.958C6.58989 80.1376 36.3799 39.2176 87.2799 14.1076C112.206 1.66916 140.388 -2.69641 167.91 1.61755C220.28 9.50755 258.4 37.4976 280.34 86.8876C290.25 109.218 293.55 132.948 291.41 157.428C288.924 188.213 277.057 217.496 257.41 241.328C255.73 243.398 254.41 243.818 251.9 242.718C242.949 238.837 235.548 232.082 230.868 223.523C226.188 214.963 224.496 205.087 226.06 195.458C226.83 190.788 229.06 186.368 230.55 181.818C234.69 169.398 237.78 156.818 237.55 143.538C236.93 104.588 213.79 71.8176 177.28 60.0575C148.99 50.9475 122.09 55.1776 97.1499 71.7376C75.1499 86.3676 61.9299 107.158 57.3299 133.248C52.6299 159.878 59.4799 183.788 75.6999 205.188C81.4899 212.828 89.1598 217.818 96.8598 222.868C128.146 243.401 159.457 263.884 190.79 284.318C194.85 286.968 198.96 289.518 203.04 292.148C203.928 292.719 204.782 293.34 205.6 294.008Z" fill="white"/>
<path d="M250.539 299.728C244.279 295.468 237.939 291.338 231.789 286.938C208.889 270.488 186.149 253.828 163.129 237.558C158.869 234.558 157.959 231.488 158.719 226.558C160.849 212.758 162.439 198.868 164.299 185.018C165.559 175.668 166.519 166.258 168.299 157.018C170.579 145.188 181.169 135.798 193.029 134.218C194.739 133.998 196.469 133.838 198.179 133.598C200.109 133.338 200.849 134.108 200.599 136.088C199.929 141.228 199.349 146.378 198.699 151.528C197.069 164.528 195.639 177.448 193.789 190.358C192.519 199.078 192.959 207.508 196.069 215.758C199.933 225.988 206.875 234.769 215.939 240.888C233.019 252.888 244.589 268.808 249.699 289.388C250.499 292.638 250.899 295.998 251.479 299.318L250.539 299.728Z" fill="white"/>
<path d="M147.789 227.108C145.169 225.328 143.049 224.108 141.139 222.578C133.689 216.658 126.269 210.708 118.959 204.578C118.461 204.093 118.071 203.508 117.814 202.862C117.557 202.216 117.44 201.523 117.469 200.828C118.409 192.658 119.469 184.488 120.749 176.368C121.268 172.563 123.225 169.102 126.219 166.698C133.219 161.138 141.089 159.098 149.799 160.998C154.269 161.998 156.309 165.538 155.659 170.058C153.799 183.148 152.069 196.268 150.269 209.368C149.439 215.058 148.629 220.708 147.789 227.108Z" fill="white"/>
</svg>
